<mxfile host="65bd71144e">
    <diagram id="wYrWNisq1VaCfFmL4hVv" name="ページ1">
        <mxGraphModel dx="492" dy="462" grid="1" gridSize="10" guides="1" tooltips="1" connect="1" arrows="1" fold="1" page="1" pageScale="1" pageWidth="827" pageHeight="1169" math="0" shadow="0">
            <root>
                <mxCell id="0"/>
                <mxCell id="1" parent="0"/>
                <mxCell id="30" value="" style="shape=umlLifeline;participant=umlActor;perimeter=lifelinePerimeter;whiteSpace=wrap;html=1;container=1;collapsible=0;recursiveResize=0;verticalAlign=top;spacingTop=36;outlineConnect=0;" vertex="1" parent="1">
                    <mxGeometry x="100" y="120" width="20" height="400" as="geometry"/>
                </mxCell>
                <mxCell id="31" value="" style="html=1;points=[];perimeter=orthogonalPerimeter;" vertex="1" parent="30">
                    <mxGeometry x="5" y="60" width="10" height="180" as="geometry"/>
                </mxCell>
                <mxCell id="32" value="未登録&lt;br&gt;ユーザ" style="text;html=1;align=center;verticalAlign=middle;resizable=0;points=[];autosize=1;strokeColor=none;fillColor=none;" vertex="1" parent="1">
                    <mxGeometry x="80" y="80" width="60" height="40" as="geometry"/>
                </mxCell>
                <mxCell id="33" value="：メイン画面" style="shape=umlLifeline;perimeter=lifelinePerimeter;whiteSpace=wrap;html=1;container=1;collapsible=0;recursiveResize=0;outlineConnect=0;" vertex="1" parent="1">
                    <mxGeometry x="180" y="120" width="100" height="400" as="geometry"/>
                </mxCell>
                <mxCell id="34" value="" style="html=1;points=[];perimeter=orthogonalPerimeter;" vertex="1" parent="33">
                    <mxGeometry x="45" y="80" width="10" height="240" as="geometry"/>
                </mxCell>
                <mxCell id="35" value="show_window()" style="html=1;verticalAlign=bottom;endArrow=block;" edge="1" parent="33" target="37">
                    <mxGeometry width="80" relative="1" as="geometry">
                        <mxPoint x="50" y="100" as="sourcePoint"/>
                        <mxPoint x="130" y="100" as="targetPoint"/>
                    </mxGeometry>
                </mxCell>
                <mxCell id="36" value="show_window()" style="html=1;verticalAlign=bottom;endArrow=block;" edge="1" parent="33" target="42">
                    <mxGeometry width="80" relative="1" as="geometry">
                        <mxPoint x="50" y="300" as="sourcePoint"/>
                        <mxPoint x="130" y="300" as="targetPoint"/>
                    </mxGeometry>
                </mxCell>
                <mxCell id="37" value="：ユーザ情報登録画面" style="shape=umlLifeline;perimeter=lifelinePerimeter;whiteSpace=wrap;html=1;container=1;collapsible=0;recursiveResize=0;outlineConnect=0;" vertex="1" parent="1">
                    <mxGeometry x="310" y="120" width="100" height="400" as="geometry"/>
                </mxCell>
                <mxCell id="38" value="" style="html=1;points=[];perimeter=orthogonalPerimeter;" vertex="1" parent="37">
                    <mxGeometry x="45" y="100" width="10" height="180" as="geometry"/>
                </mxCell>
                <mxCell id="39" value="confirm(Username,Pass)" style="html=1;verticalAlign=bottom;endArrow=block;" edge="1" parent="37" target="45">
                    <mxGeometry width="80" relative="1" as="geometry">
                        <mxPoint x="50" y="160" as="sourcePoint"/>
                        <mxPoint x="130" y="160" as="targetPoint"/>
                    </mxGeometry>
                </mxCell>
                <mxCell id="40" value="" style="html=1;points=[];perimeter=orthogonalPerimeter;" vertex="1" parent="37">
                    <mxGeometry x="50" y="220" width="10" height="40" as="geometry"/>
                </mxCell>
                <mxCell id="41" value="show_script(&quot;文字数オーバーです&quot;)" style="edgeStyle=orthogonalEdgeStyle;html=1;align=left;spacingLeft=2;endArrow=block;rounded=0;entryX=1;entryY=0;" edge="1" parent="37" target="40">
                    <mxGeometry relative="1" as="geometry">
                        <mxPoint x="55" y="200" as="sourcePoint"/>
                        <Array as="points">
                            <mxPoint x="85" y="200"/>
                            <mxPoint x="85" y="220"/>
                        </Array>
                    </mxGeometry>
                </mxCell>
                <mxCell id="42" value="：ユーザ情報確認画面" style="shape=umlLifeline;perimeter=lifelinePerimeter;whiteSpace=wrap;html=1;container=1;collapsible=0;recursiveResize=0;outlineConnect=0;" vertex="1" parent="1">
                    <mxGeometry x="430" y="120" width="100" height="400" as="geometry"/>
                </mxCell>
                <mxCell id="43" value="[文字数が上限以上]" style="text;html=1;align=center;verticalAlign=middle;resizable=0;points=[];autosize=1;strokeColor=none;fillColor=none;" vertex="1" parent="42">
                    <mxGeometry x="-40" y="175" width="130" height="30" as="geometry"/>
                </mxCell>
                <mxCell id="44" value="" style="html=1;points=[];perimeter=orthogonalPerimeter;" vertex="1" parent="42">
                    <mxGeometry x="45" y="300" width="10" height="80" as="geometry"/>
                </mxCell>
                <mxCell id="45" value="：ゲームコントロル" style="shape=umlLifeline;perimeter=lifelinePerimeter;whiteSpace=wrap;html=1;container=1;collapsible=0;recursiveResize=0;outlineConnect=0;" vertex="1" parent="1">
                    <mxGeometry x="550" y="120" width="100" height="400" as="geometry"/>
                </mxCell>
                <mxCell id="46" value="" style="html=1;points=[];perimeter=orthogonalPerimeter;" vertex="1" parent="45">
                    <mxGeometry x="45" y="160" width="10" height="120" as="geometry"/>
                </mxCell>
                <mxCell id="47" value="create_user(Username,Pass)" style="html=1;verticalAlign=bottom;endArrow=block;" edge="1" parent="45" target="48">
                    <mxGeometry width="80" relative="1" as="geometry">
                        <mxPoint x="50" y="230" as="sourcePoint"/>
                        <mxPoint x="130" y="230" as="targetPoint"/>
                    </mxGeometry>
                </mxCell>
                <mxCell id="48" value="：登録済ユーザ" style="shape=umlLifeline;perimeter=lifelinePerimeter;whiteSpace=wrap;html=1;container=1;collapsible=0;recursiveResize=0;outlineConnect=0;" vertex="1" parent="1">
                    <mxGeometry x="710" y="120" width="100" height="400" as="geometry"/>
                </mxCell>
                <mxCell id="49" value="" style="html=1;points=[];perimeter=orthogonalPerimeter;" vertex="1" parent="48">
                    <mxGeometry x="45" y="230" width="10" height="80" as="geometry"/>
                </mxCell>
                <mxCell id="50" value="input(Username,Pass)" style="html=1;verticalAlign=bottom;endArrow=block;" edge="1" parent="1" target="37">
                    <mxGeometry width="80" relative="1" as="geometry">
                        <mxPoint x="110" y="260" as="sourcePoint"/>
                        <mxPoint x="190" y="260" as="targetPoint"/>
                    </mxGeometry>
                </mxCell>
                <mxCell id="51" value="frame" style="shape=umlFrame;whiteSpace=wrap;html=1;" vertex="1" parent="1">
                    <mxGeometry x="40" y="40" width="780" height="490" as="geometry"/>
                </mxCell>
            </root>
        </mxGraphModel>
    </diagram>
</mxfile>